<mxfile host="Electron" agent="Mozilla/5.0 (Windows NT 10.0; Win64; x64) AppleWebKit/537.36 (KHTML, like Gecko) draw.io/26.0.9 Chrome/128.0.6613.186 Electron/32.2.5 Safari/537.36" version="26.0.9">
  <diagram id="C5RBs43oDa-KdzZeNtuy" name="Page-1">
    <mxGraphModel dx="792" dy="1180" grid="1" gridSize="10" guides="1" tooltips="1" connect="1" arrows="1" fold="1" page="1" pageScale="1" pageWidth="827" pageHeight="1169" math="0" shadow="0">
      <root>
        <mxCell id="WIyWlLk6GJQsqaUBKTNV-0" />
        <mxCell id="WIyWlLk6GJQsqaUBKTNV-1" parent="WIyWlLk6GJQsqaUBKTNV-0" />
        <mxCell id="aklkfkUX1G98f9SD1wW3-3" value="" style="edgeStyle=orthogonalEdgeStyle;rounded=0;orthogonalLoop=1;jettySize=auto;html=1;" edge="1" parent="WIyWlLk6GJQsqaUBKTNV-1" source="aklkfkUX1G98f9SD1wW3-0" target="aklkfkUX1G98f9SD1wW3-1">
          <mxGeometry relative="1" as="geometry" />
        </mxCell>
        <mxCell id="aklkfkUX1G98f9SD1wW3-0" value="Algus&amp;nbsp;" style="ellipse;whiteSpace=wrap;html=1;" vertex="1" parent="WIyWlLk6GJQsqaUBKTNV-1">
          <mxGeometry x="380" y="80" width="120" height="50" as="geometry" />
        </mxCell>
        <mxCell id="aklkfkUX1G98f9SD1wW3-5" value="" style="edgeStyle=orthogonalEdgeStyle;rounded=0;orthogonalLoop=1;jettySize=auto;html=1;" edge="1" parent="WIyWlLk6GJQsqaUBKTNV-1" source="aklkfkUX1G98f9SD1wW3-1" target="aklkfkUX1G98f9SD1wW3-4">
          <mxGeometry relative="1" as="geometry" />
        </mxCell>
        <mxCell id="aklkfkUX1G98f9SD1wW3-1" value="Kuva kasutajale tekst&amp;nbsp;&lt;div&gt;&quot;sisesta ostusumma&amp;nbsp;&lt;/div&gt;" style="shape=parallelogram;perimeter=parallelogramPerimeter;whiteSpace=wrap;html=1;fixedSize=1;" vertex="1" parent="WIyWlLk6GJQsqaUBKTNV-1">
          <mxGeometry x="365" y="200" width="150" height="60" as="geometry" />
        </mxCell>
        <mxCell id="aklkfkUX1G98f9SD1wW3-8" value="" style="edgeStyle=orthogonalEdgeStyle;rounded=0;orthogonalLoop=1;jettySize=auto;html=1;" edge="1" parent="WIyWlLk6GJQsqaUBKTNV-1" source="aklkfkUX1G98f9SD1wW3-4" target="aklkfkUX1G98f9SD1wW3-7">
          <mxGeometry relative="1" as="geometry" />
        </mxCell>
        <mxCell id="aklkfkUX1G98f9SD1wW3-4" value="tekitame muutuja&amp;nbsp;&lt;div&gt;&quot;ostusumma&quot; mile sisse&amp;nbsp;&lt;/div&gt;&lt;div&gt;loeme v채채rtuse kasutajat&lt;/div&gt;" style="shape=parallelogram;perimeter=parallelogramPerimeter;whiteSpace=wrap;html=1;fixedSize=1;" vertex="1" parent="WIyWlLk6GJQsqaUBKTNV-1">
          <mxGeometry x="355" y="360" width="170" height="70" as="geometry" />
        </mxCell>
        <mxCell id="aklkfkUX1G98f9SD1wW3-10" value="" style="edgeStyle=orthogonalEdgeStyle;rounded=0;orthogonalLoop=1;jettySize=auto;html=1;" edge="1" parent="WIyWlLk6GJQsqaUBKTNV-1" source="aklkfkUX1G98f9SD1wW3-7" target="aklkfkUX1G98f9SD1wW3-9">
          <mxGeometry relative="1" as="geometry" />
        </mxCell>
        <mxCell id="aklkfkUX1G98f9SD1wW3-11" value="JAh" style="edgeLabel;html=1;align=center;verticalAlign=middle;resizable=0;points=[];" vertex="1" connectable="0" parent="aklkfkUX1G98f9SD1wW3-10">
          <mxGeometry x="-0.2517" y="1" relative="1" as="geometry">
            <mxPoint as="offset" />
          </mxGeometry>
        </mxCell>
        <mxCell id="aklkfkUX1G98f9SD1wW3-14" value="" style="edgeStyle=orthogonalEdgeStyle;rounded=0;orthogonalLoop=1;jettySize=auto;html=1;" edge="1" parent="WIyWlLk6GJQsqaUBKTNV-1" source="aklkfkUX1G98f9SD1wW3-7" target="aklkfkUX1G98f9SD1wW3-13">
          <mxGeometry relative="1" as="geometry" />
        </mxCell>
        <mxCell id="aklkfkUX1G98f9SD1wW3-18" value="EI" style="edgeLabel;html=1;align=center;verticalAlign=middle;resizable=0;points=[];" vertex="1" connectable="0" parent="aklkfkUX1G98f9SD1wW3-14">
          <mxGeometry x="-0.149" relative="1" as="geometry">
            <mxPoint as="offset" />
          </mxGeometry>
        </mxCell>
        <mxCell id="aklkfkUX1G98f9SD1wW3-7" value="Kas kasutaja ostusumma on suurem kui 100?&amp;nbsp;" style="rhombus;whiteSpace=wrap;html=1;" vertex="1" parent="WIyWlLk6GJQsqaUBKTNV-1">
          <mxGeometry x="362.5" y="495" width="155" height="90" as="geometry" />
        </mxCell>
        <mxCell id="aklkfkUX1G98f9SD1wW3-38" style="edgeStyle=orthogonalEdgeStyle;rounded=0;orthogonalLoop=1;jettySize=auto;html=1;" edge="1" parent="WIyWlLk6GJQsqaUBKTNV-1" source="aklkfkUX1G98f9SD1wW3-9">
          <mxGeometry relative="1" as="geometry">
            <mxPoint x="440" y="1270" as="targetPoint" />
            <Array as="points">
              <mxPoint x="1000" y="540" />
              <mxPoint x="1000" y="1280" />
              <mxPoint x="440" y="1280" />
            </Array>
          </mxGeometry>
        </mxCell>
        <mxCell id="aklkfkUX1G98f9SD1wW3-9" value="kuvame kasutajale teksti &quot;saad 20% allahindlust&quot;" style="shape=parallelogram;perimeter=parallelogramPerimeter;whiteSpace=wrap;html=1;fixedSize=1;" vertex="1" parent="WIyWlLk6GJQsqaUBKTNV-1">
          <mxGeometry x="670" y="505" width="170" height="70" as="geometry" />
        </mxCell>
        <mxCell id="aklkfkUX1G98f9SD1wW3-16" value="" style="edgeStyle=orthogonalEdgeStyle;rounded=0;orthogonalLoop=1;jettySize=auto;html=1;" edge="1" parent="WIyWlLk6GJQsqaUBKTNV-1" source="aklkfkUX1G98f9SD1wW3-13" target="aklkfkUX1G98f9SD1wW3-15">
          <mxGeometry relative="1" as="geometry" />
        </mxCell>
        <mxCell id="aklkfkUX1G98f9SD1wW3-17" value="JAH" style="edgeLabel;html=1;align=center;verticalAlign=middle;resizable=0;points=[];" vertex="1" connectable="0" parent="aklkfkUX1G98f9SD1wW3-16">
          <mxGeometry x="-0.1818" y="-3" relative="1" as="geometry">
            <mxPoint as="offset" />
          </mxGeometry>
        </mxCell>
        <mxCell id="aklkfkUX1G98f9SD1wW3-22" value="" style="edgeStyle=orthogonalEdgeStyle;rounded=0;orthogonalLoop=1;jettySize=auto;html=1;" edge="1" parent="WIyWlLk6GJQsqaUBKTNV-1" source="aklkfkUX1G98f9SD1wW3-13" target="aklkfkUX1G98f9SD1wW3-19">
          <mxGeometry relative="1" as="geometry" />
        </mxCell>
        <mxCell id="aklkfkUX1G98f9SD1wW3-34" value="EI" style="edgeLabel;html=1;align=center;verticalAlign=middle;resizable=0;points=[];" vertex="1" connectable="0" parent="aklkfkUX1G98f9SD1wW3-22">
          <mxGeometry y="-3" relative="1" as="geometry">
            <mxPoint as="offset" />
          </mxGeometry>
        </mxCell>
        <mxCell id="aklkfkUX1G98f9SD1wW3-13" value="Kas kasutaja ostusumma on suurem kui 50 ja v채iksem kui 101?&amp;nbsp;" style="rhombus;whiteSpace=wrap;html=1;" vertex="1" parent="WIyWlLk6GJQsqaUBKTNV-1">
          <mxGeometry x="350" y="670" width="180" height="80" as="geometry" />
        </mxCell>
        <mxCell id="aklkfkUX1G98f9SD1wW3-43" style="edgeStyle=orthogonalEdgeStyle;rounded=0;orthogonalLoop=1;jettySize=auto;html=1;" edge="1" parent="WIyWlLk6GJQsqaUBKTNV-1" source="aklkfkUX1G98f9SD1wW3-15">
          <mxGeometry relative="1" as="geometry">
            <mxPoint x="440" y="1280" as="targetPoint" />
            <Array as="points">
              <mxPoint x="1000" y="710" />
              <mxPoint x="1000" y="1280" />
            </Array>
          </mxGeometry>
        </mxCell>
        <mxCell id="aklkfkUX1G98f9SD1wW3-15" value="Kuvame kasutajale teksti &quot;saad 5% allahindlust&quot;" style="shape=parallelogram;perimeter=parallelogramPerimeter;whiteSpace=wrap;html=1;fixedSize=1;" vertex="1" parent="WIyWlLk6GJQsqaUBKTNV-1">
          <mxGeometry x="630" y="675" width="160" height="70" as="geometry" />
        </mxCell>
        <mxCell id="aklkfkUX1G98f9SD1wW3-21" value="" style="edgeStyle=orthogonalEdgeStyle;rounded=0;orthogonalLoop=1;jettySize=auto;html=1;" edge="1" parent="WIyWlLk6GJQsqaUBKTNV-1" source="aklkfkUX1G98f9SD1wW3-19" target="aklkfkUX1G98f9SD1wW3-20">
          <mxGeometry relative="1" as="geometry" />
        </mxCell>
        <mxCell id="aklkfkUX1G98f9SD1wW3-35" value="JAH" style="edgeLabel;html=1;align=center;verticalAlign=middle;resizable=0;points=[];" vertex="1" connectable="0" parent="aklkfkUX1G98f9SD1wW3-21">
          <mxGeometry x="-0.3" y="-2" relative="1" as="geometry">
            <mxPoint as="offset" />
          </mxGeometry>
        </mxCell>
        <mxCell id="aklkfkUX1G98f9SD1wW3-25" value="" style="edgeStyle=orthogonalEdgeStyle;rounded=0;orthogonalLoop=1;jettySize=auto;html=1;" edge="1" parent="WIyWlLk6GJQsqaUBKTNV-1" source="aklkfkUX1G98f9SD1wW3-19" target="aklkfkUX1G98f9SD1wW3-23">
          <mxGeometry relative="1" as="geometry" />
        </mxCell>
        <mxCell id="aklkfkUX1G98f9SD1wW3-33" value="EI" style="edgeLabel;html=1;align=center;verticalAlign=middle;resizable=0;points=[];" vertex="1" connectable="0" parent="aklkfkUX1G98f9SD1wW3-25">
          <mxGeometry x="-0.1667" y="4" relative="1" as="geometry">
            <mxPoint as="offset" />
          </mxGeometry>
        </mxCell>
        <mxCell id="aklkfkUX1G98f9SD1wW3-19" value="Kas kasutaja ostusumma on suurem kui 20 ja v채iksem kui 51?" style="rhombus;whiteSpace=wrap;html=1;" vertex="1" parent="WIyWlLk6GJQsqaUBKTNV-1">
          <mxGeometry x="360" y="840" width="160" height="80" as="geometry" />
        </mxCell>
        <mxCell id="aklkfkUX1G98f9SD1wW3-42" style="edgeStyle=orthogonalEdgeStyle;rounded=0;orthogonalLoop=1;jettySize=auto;html=1;exitX=1;exitY=0.5;exitDx=0;exitDy=0;" edge="1" parent="WIyWlLk6GJQsqaUBKTNV-1" source="aklkfkUX1G98f9SD1wW3-20">
          <mxGeometry relative="1" as="geometry">
            <mxPoint x="440" y="1280" as="targetPoint" />
            <Array as="points">
              <mxPoint x="1000" y="880" />
              <mxPoint x="1000" y="1280" />
            </Array>
          </mxGeometry>
        </mxCell>
        <mxCell id="aklkfkUX1G98f9SD1wW3-20" value="Kuvame kasutajale teksti &quot;saad 5% allahindlust&quot;" style="shape=parallelogram;perimeter=parallelogramPerimeter;whiteSpace=wrap;html=1;fixedSize=1;" vertex="1" parent="WIyWlLk6GJQsqaUBKTNV-1">
          <mxGeometry x="610" y="840" width="190" height="80" as="geometry" />
        </mxCell>
        <mxCell id="aklkfkUX1G98f9SD1wW3-26" value="" style="edgeStyle=orthogonalEdgeStyle;rounded=0;orthogonalLoop=1;jettySize=auto;html=1;" edge="1" parent="WIyWlLk6GJQsqaUBKTNV-1" source="aklkfkUX1G98f9SD1wW3-23" target="aklkfkUX1G98f9SD1wW3-24">
          <mxGeometry relative="1" as="geometry" />
        </mxCell>
        <mxCell id="aklkfkUX1G98f9SD1wW3-36" value="JAH" style="edgeLabel;html=1;align=center;verticalAlign=middle;resizable=0;points=[];" vertex="1" connectable="0" parent="aklkfkUX1G98f9SD1wW3-26">
          <mxGeometry x="-0.2293" y="-1" relative="1" as="geometry">
            <mxPoint x="1" as="offset" />
          </mxGeometry>
        </mxCell>
        <mxCell id="aklkfkUX1G98f9SD1wW3-29" value="" style="edgeStyle=orthogonalEdgeStyle;rounded=0;orthogonalLoop=1;jettySize=auto;html=1;" edge="1" parent="WIyWlLk6GJQsqaUBKTNV-1" source="aklkfkUX1G98f9SD1wW3-23" target="aklkfkUX1G98f9SD1wW3-28">
          <mxGeometry relative="1" as="geometry" />
        </mxCell>
        <mxCell id="aklkfkUX1G98f9SD1wW3-32" value="EI" style="edgeLabel;html=1;align=center;verticalAlign=middle;resizable=0;points=[];" vertex="1" connectable="0" parent="aklkfkUX1G98f9SD1wW3-29">
          <mxGeometry x="-0.0889" y="-1" relative="1" as="geometry">
            <mxPoint as="offset" />
          </mxGeometry>
        </mxCell>
        <mxCell id="aklkfkUX1G98f9SD1wW3-23" value="Kas kasutaja ostusumma on suurem kui 0 ja v채iksem kui 21?&amp;nbsp;" style="rhombus;whiteSpace=wrap;html=1;" vertex="1" parent="WIyWlLk6GJQsqaUBKTNV-1">
          <mxGeometry x="362.5" y="980" width="155" height="80" as="geometry" />
        </mxCell>
        <mxCell id="aklkfkUX1G98f9SD1wW3-41" style="edgeStyle=orthogonalEdgeStyle;rounded=0;orthogonalLoop=1;jettySize=auto;html=1;exitX=1;exitY=0.5;exitDx=0;exitDy=0;" edge="1" parent="WIyWlLk6GJQsqaUBKTNV-1" source="aklkfkUX1G98f9SD1wW3-24">
          <mxGeometry relative="1" as="geometry">
            <mxPoint x="994" y="1280" as="targetPoint" />
            <Array as="points">
              <mxPoint x="1000" y="1020" />
              <mxPoint x="1000" y="1280" />
            </Array>
          </mxGeometry>
        </mxCell>
        <mxCell id="aklkfkUX1G98f9SD1wW3-24" value="Kuvame kasutajale teksti &quot;allahindlust ei saa&quot;" style="shape=parallelogram;perimeter=parallelogramPerimeter;whiteSpace=wrap;html=1;fixedSize=1;" vertex="1" parent="WIyWlLk6GJQsqaUBKTNV-1">
          <mxGeometry x="610" y="990" width="180" height="60" as="geometry" />
        </mxCell>
        <mxCell id="aklkfkUX1G98f9SD1wW3-31" value="" style="edgeStyle=orthogonalEdgeStyle;rounded=0;orthogonalLoop=1;jettySize=auto;html=1;" edge="1" parent="WIyWlLk6GJQsqaUBKTNV-1" source="aklkfkUX1G98f9SD1wW3-28" target="aklkfkUX1G98f9SD1wW3-30">
          <mxGeometry relative="1" as="geometry" />
        </mxCell>
        <mxCell id="aklkfkUX1G98f9SD1wW3-28" value="Kuvame kasutajale teksti&amp;nbsp;&lt;div&gt;&quot;sisestanud on vigane arv&quot;&lt;/div&gt;" style="shape=parallelogram;perimeter=parallelogramPerimeter;whiteSpace=wrap;html=1;fixedSize=1;" vertex="1" parent="WIyWlLk6GJQsqaUBKTNV-1">
          <mxGeometry x="350" y="1150" width="180" height="80" as="geometry" />
        </mxCell>
        <mxCell id="aklkfkUX1G98f9SD1wW3-30" value="L천pp" style="ellipse;whiteSpace=wrap;html=1;" vertex="1" parent="WIyWlLk6GJQsqaUBKTNV-1">
          <mxGeometry x="380" y="1310" width="120" height="80" as="geometry" />
        </mxCell>
      </root>
    </mxGraphModel>
  </diagram>
</mxfile>
